<?xml version="1.0" encoding="UTF-8" standalone="no"?>
<!-- Created with Inkscape (http://www.inkscape.org/) -->

<svg
   width="210mm"
   height="297mm"
   viewBox="0 0 210 297"
   version="1.1"
   id="svg5"
   inkscape:version="1.1.2 (b8e25be833, 2022-02-05)"
   sodipodi:docname="help-speak.svg"
   xmlns:inkscape="http://www.inkscape.org/namespaces/inkscape"
   xmlns:sodipodi="http://sodipodi.sourceforge.net/DTD/sodipodi-0.dtd"
   xmlns="http://www.w3.org/2000/svg"
   xmlns:svg="http://www.w3.org/2000/svg">
  <sodipodi:namedview
     id="namedview7"
     pagecolor="#ffffff"
     bordercolor="#666666"
     borderopacity="1.0"
     inkscape:pageshadow="2"
     inkscape:pageopacity="0.0"
     inkscape:pagecheckerboard="0"
     inkscape:document-units="mm"
     showgrid="true"
     inkscape:object-paths="true"
     inkscape:zoom="0.44976872"
     inkscape:cx="-163.41732"
     inkscape:cy="459.12486"
     inkscape:window-width="1920"
     inkscape:window-height="991"
     inkscape:window-x="-9"
     inkscape:window-y="-9"
     inkscape:window-maximized="1"
     inkscape:current-layer="layer1">
    <inkscape:grid
       type="xygrid"
       id="grid824" />
  </sodipodi:namedview>
  <defs
     id="defs2" />
  <g
     inkscape:label="Ebene 1"
     inkscape:groupmode="layer"
     id="layer1">
    <text
       xml:space="preserve"
       style="font-size:441.508px;line-height:1.25;font-family:'Britannic Bold';-inkscape-font-specification:'Britannic Bold, Normal';font-variant-ligatures:none;direction:rtl;fill:#b200b7;fill-opacity:1;stroke-width:0.331129"
       x="182.58299"
       y="337.10666"
       id="text2294"
       transform="scale(1.1801701,0.8473355)"><tspan
         sodipodi:role="line"
         id="tspan2292"
         style="font-style:normal;font-variant:normal;font-weight:normal;font-stretch:normal;font-size:441.508px;font-family:'Berlin Sans FB Demi';-inkscape-font-specification:'Berlin Sans FB Demi';fill:#b200b7;fill-opacity:1;stroke-width:0.331129"
         x="182.58299"
         y="337.10666">?</tspan></text>
    <circle
       style="fill:#ffffff;fill-opacity:1;stroke:#000000;stroke-width:1.10085;stroke-linejoin:round;stroke-opacity:1"
       id="path9772-3-5"
       cx="60.193592"
       cy="53.207611"
       r="17.476034" />
    <path
       style="fill:none;stroke:#000000;stroke-width:0.354261px;stroke-linecap:butt;stroke-linejoin:miter;stroke-opacity:1"
       d="m 45.742437,63.5 c 1.77131,-5.313917 1.77131,-15.941752 14.170454,-15.941752 12.399131,0 12.399131,10.627835 14.170442,15.941752"
       id="path12180-8"
       sodipodi:nodetypes="ccc" />
    <path
       style="fill:#000000;fill-opacity:1;stroke:#000000;stroke-width:0.0372119;stroke-linejoin:round;stroke-miterlimit:4;stroke-dasharray:none;stroke-opacity:1"
       d="M 58.688886,70.010447 C 55.061002,69.686402 51.516829,68.111063 48.814688,65.6215 47.979818,64.852308 46.989445,63.749407 46.502044,63.046089 l -0.26578,-0.383526 0.647552,-2.598343 c 0.761964,-3.057415 1.154728,-4.268522 1.872534,-5.773904 1.727634,-3.623183 4.289307,-5.56115 8.317694,-6.29252 1.284218,-0.233157 4.414994,-0.234684 5.661252,-0.0028 3.787901,0.70491 6.208744,2.393958 8.000152,5.581812 0.816833,1.453562 1.404882,3.231465 2.387892,7.219542 0.689781,2.798393 0.728035,2.410994 -0.358609,3.631768 -2.862532,3.215851 -6.788813,5.180144 -11.161683,5.584108 -1.251694,0.115685 -1.601639,0.115417 -2.914162,-0.0013 z"
       id="path12504-3" />
    <circle
       style="fill:#ffffff;fill-opacity:1;stroke:#000000;stroke-width:0.654813;stroke-linejoin:round;stroke-miterlimit:4;stroke-dasharray:none;stroke-opacity:1"
       id="path11664-3-6"
       cx="59.397335"
       cy="54.208115"
       r="2.7031207" />
    <circle
       style="fill:#ffffff;fill-opacity:1;stroke:#000000;stroke-width:1.10085;stroke-linejoin:round;stroke-opacity:1"
       id="path9772-3-5-1"
       cx="140.95732"
       cy="54.045055"
       r="17.476034" />
    <path
       style="fill:none;stroke:#000000;stroke-width:0.354261px;stroke-linecap:butt;stroke-linejoin:miter;stroke-opacity:1"
       d="m 126.50617,64.337438 c 1.77131,-5.313917 1.77131,-15.941752 14.17045,-15.941752 12.39913,0 12.39913,10.627835 14.17044,15.941752"
       id="path12180-8-8"
       sodipodi:nodetypes="ccc" />
    <path
       style="fill:#000000;fill-opacity:1;stroke:#000000;stroke-width:0.0372119;stroke-linejoin:round;stroke-miterlimit:4;stroke-dasharray:none;stroke-opacity:1"
       d="m 139.45262,70.847885 c -3.62789,-0.324045 -7.17206,-1.899384 -9.8742,-4.388947 -0.83487,-0.769193 -1.82524,-1.872093 -2.31265,-2.575412 L 127,63.5 l 0.64755,-2.598342 c 0.76196,-3.057415 1.15473,-4.268523 1.87253,-5.773905 1.72763,-3.623183 4.28931,-5.561149 8.3177,-6.29252 1.28421,-0.233156 4.41499,-0.234684 5.66125,-0.0028 3.7879,0.70491 6.20874,2.393958 8.00015,5.581812 0.81683,1.453562 1.40488,3.231465 2.38789,7.219542 0.68978,2.798393 0.72804,2.410994 -0.35861,3.631768 -2.86253,3.215851 -6.78881,5.180143 -11.16168,5.584108 -1.2517,0.115685 -1.60164,0.115417 -2.91416,-0.0013 z"
       id="path12504-3-6" />
    <circle
       style="fill:#ffffff;fill-opacity:1;stroke:#000000;stroke-width:0.654813;stroke-linejoin:round;stroke-miterlimit:4;stroke-dasharray:none;stroke-opacity:1"
       id="path11664-3-6-8"
       cx="141.72652"
       cy="54.361843"
       r="2.7031207" />
    <path
       style="fill:#fc91ff;fill-opacity:1;stroke:#710075;stroke-width:6;stroke-linecap:butt;stroke-linejoin:miter;stroke-miterlimit:4;stroke-dasharray:none;stroke-opacity:1"
       d="m 58.172536,121.70833 c 29.695889,49.97276 57.565474,37.50876 84.702464,0 -25.70846,5.8075 -52.895604,8.21496 -84.702464,0 z"
       id="path967"
       sodipodi:nodetypes="ccc" />
  </g>
</svg>
