<?xml version="1.0" encoding="UTF-8"?>
<svg enable-background="new 0 0 147.566 110.986" viewBox="0 0 147.566 110.986" xmlns="http://www.w3.org/2000/svg">
 <path d="m95.993,29.786c.82,3.658 2.042,7.278 2.393,9.905 1.635,12.268.703,24.559 4.252,36.623 1.566,5.325 2.638,13.826 6.77,17.863 1.021-7.11 2.322-14.254 4.784-21.054-1.846,5.095 19.044,11.79 21.428,12.926-6.643-8.056-10.602-17.746-15.518-26.835-3.813-7.052-6.565-14.795-7.506-22.781-.688-5.843.454-13.697-4.652-17.83-2.835-2.292-7.572-3.892-10.543-.951-2.839,2.81-2.446,7.502-1.408,12.134z" fill="#1c1c40" stroke="#f9cb0d" stroke-width=".4021"/>
 <path d="m34.595,101.867c-1.294-2.031-.523-5.482-2.472-7.119-.842,1.017-.292,2.385-.461,3.609-.253,1.84-.959,2.58-2.372,3.611 .699-2.235-1.454-4.496-.987-6.764 .339-1.643 1.803-2.765 2.38-4.258 .387-1 .738-3.876-1.289-3.334-1.463.391-3.175,4.602-3.741,5.922-.745-3.623-.829-6.637 1.548-9.424 1.413-1.656 3.25-3.23 2.958-5.658-1.192.155-1.453,1.213-2.175,2.084-.982,1.183-2.329,1.237-3.201,2.334 1.016-.838.122-2.734.313-4.029 .228-1.552 1.14-3.057 2.235-4.152 2.077-2.078 3.176-2.855 2.851-5.942-2.05.13-2.305,5.087-4.908,3.878 1.069-.732.556-2.275.627-3.497 .096-1.625.652-2.954 1.899-4.098 .775-.712 2.092-1.006 2.734-1.705 .767-.838.621-2.044 1.187-2.966-1.969-.507-4.142.938-5.267,2.426-.521-3.051 2.127-5.539 4.619-6.836 2.438-1.27 2.158-2.546 3.598-4.574-.139.739-.264,1.406-.691,2.008-1.521-.609-2.949.725-3.643,1.82-3.768-3.582 7.637-7.333 8.114-9.867-1.192-.453-3.614.595-4.106,1.695-.172-6.468 7.808-4.278 10.176-8.323-1.888-.487-3.442,2.119-5.785,1.028 1.827.121 2.495-1.629 3.533-2.673 1.374-1.382 3.466-2.685 5.533-2.969 2.759-.378 4.336-.85 6.932-1.798-1.771-.197-4.85-1.335-6.477-.83 2.587-2.409 4.669-2.326 8.201-2.218 2.901.085 4.842-1.194 7.604-1.392-1.131-.865-2.264-.597-3.536-1.003-1.118-.356-1.812-.978-2.845-1.346 1.471.91 2.412-.48 3.688-.95 1.642-.605 2.838-.451 4.491.133 1.182.417 2.195,1.417 3.449,1.435 1.274.016 2.646-.883 3.94-1.027-2.438-1.066-5.086-.909-6.877-3.157 1.824.686 3.138.276 4.937.025 1.99-.279 3.354-.031 5.238.57 2.236.71 4.859,2.585 7.113,1.427-.99-.375-2.27-.611-3.365-.979-1.494-.501-2.789-1.56-4.297-1.905 2.148.933 4.902-.706 7.29.121 1.818.63 4.27,1.779 5.835,2.855-1.208-1.288-2.862-2.145-4.302-3.192 3.819.003 6.929,3.221 10.421,4.282 .05-1.14-1.785-2.072-2.572-2.963 4.183,1.221 7.691,3.41 11.613,4.881 2.821,1.059 5.754,1.722 8.485,3.064 .779.384 1.115,1.277.749,1.996-.365.719-1.297.992-2.077.61-2.089-1.02-5.313-2.728-7.588-2.806-.71-.025-6.623,2.203-6.585,2.579-.131-1.282.061-2.635.694-3.723-2.368-1.843-5.441,4.391-7.896,4.33-.174-2.605 1.369-4.142 2.941-5.806-2.362-.382-4.187-.469-5.238,1.347-.611,1.055-.636,2.355-1.729,3.494-1.114,1.162-2.58,1.825-3.824,2.835-.285-2.944-2.541-6.156.9-8.229-3.204-.225-3.823,1.572-4.187,4.233-.245,1.815.168,3.543-1.325,4.952-.884.837-3.138,2.037-4.007.746 .734-1.7 1.552-2.981.563-5.01-.65-1.334-2.53-3.066.247-3.769-1.088-.004-3.224.498-3.916,1.324-1.013,1.209-.174,1.676.217,2.876 1.174,3.589-.767,7.645-5.1,7.75 .851-1.618 1.433-4.142.228-5.827-1.382-1.93-2.836-1.587-.599-3.926-3.505,1.204-6.646,3.349-3.641,6.815 2.238,2.58 2.22,5.148-1.092,6.954 2.302-2.74-1.341-2.963-2.964-3.716-2.693-1.249-2.949-3.947-1.071-5.628-2.343.668-4.852,3.789-3.532,6.26 .811,1.521 2.803,1.317 3.313,2.871 .736,2.236-2.142,5.071-4.222,5.387 1.033-3.099-3.117-3.948-3.857-6.256-.439-1.37.397-3.57 1.056-4.688-1.084.614-2.89,2.312-3.249,3.743-.737,2.929 1.621,5.464 2.774,7.875 .762,1.594-.076,4.021-1.175,5.19-.027-2.011-2.191-2.579-3.389-3.856-1.548-1.653-3.464-5.77-1.444-7.485-2.274,1.048-3.296,4.136-2.379,6.285 .554,1.298 1.659,2.058 2.666,3.013 1.247,1.185 1.856,2.398 2.271,3.979 .208.79.587,1.342.376,2.17-.104.411-1.49,1.753-1.48,1.809-.374-2.09-2.803-2.815-4.26-4.119-1.01-.902-3.468-3.77-2.853-5.164-1.64,3.719 1.212,6.176 3.7,8.752 1,1.033 2.104,1.979 2.682,3.296 .609,1.383-.139,2.979.325,4.164-1.051-2.689-5.979-3.284-8.147-4.796-1.016-.708-1.463-1.548-2.121-2.366 .296.37-.152,2.445.327,3.253 .62,1.046 2.323,2.491 3.469,2.943 1.696.671 3.32.6 4.502,2.169 .945,1.256 1.968,4.742 1.132,5.983-.931-2.342-3.134-3.448-5.604-3.301-1.978.121-4.424.715-5.222-1.938-.125.03-.25.056-.378.081-1.166.209.8,4.229 1.359,4.637 1.746,1.262 4.193.336 6.07,1.066 3.623,1.407 3.364,5.027 3.155,8.166 .117-1.762-4.249-3.08-5.428-3.375-1.775-.447-3.921-.924-4.623-2.885-.233,1.459.221,4.092 1.638,5.068 1.412.971 3.277.115 4.775.754 2.974,1.271 4.298,5.953 3.444,8.574-1.104-2.25-2.278-3.034-4.715-3.635-2.007-.496-2.647-.627-3.726-2.402-.012,3.323 1.941,4.636 4.664,5.816 2.608,1.131 5.94,5.09 3.451,7.695-1.214-2.834-4.941-3.119-6.198-5.626 .302,4.311 7.348,10.212 4.411,14.425-.702-2.61-3.972-3.898-5.431-6.193z" fill="#1fb512" stroke="#e8bd0a" stroke-width=".5059"/>
 <path d="m29.893,77.559c-.751-15.835 3.725-28.694 12.946-37.188 7.144-6.58 15.238-11.214 24.062-13.775 7.063-2.05 14.597-2.781 22.395-2.17 5.837.458 12.77,1.354 18.216,3.825 5.728,2.598 10.595,4.103 17.031,3.633 2.661-.192 5.206-1.237 7.705-1.434 2.417-.19 5.717.766 8.314.963-1.398,1.929-6.575,2.64-8.981,3.011-3.006.467-5.809.741-8.864.701-3.463-.046-7.607-.806-10.979-1.818-2.647-.796-5.037-2.289-7.698-3.104-4.877-1.49-9.917-2.458-14.972-2.844-7.384-.565-14.512.137-21.188,2.084-8.343,2.434-16.014,6.84-22.802,13.092-10.85,9.995-12.552,24.529-12.066,34.964 .532,11.45 3.607,22.317 2.79,22.54s-5.345-10.625-5.909-22.48z" fill="#1b960e" stroke="#f9cb0d" stroke-width=".2529"/>
 <path d="m12.354,73.947c-.473-2.559 1.483-5.721.26-8.143-1.147.689-1.128,2.281-1.725,3.447-.896,1.75-1.817,2.213-3.503,2.687 1.454-1.97.264-5.1 1.513-7.192 .906-1.516 2.669-2.063 3.741-3.335 .719-.854 2.079-3.604.002-3.866-1.501-.189-4.605,3.365-5.605,4.466 .609-3.938 1.613-7.003 4.824-8.858 1.909-1.104 4.179-1.957 4.782-4.516-1.164-.316-1.786.645-2.771,1.233-1.339.8-2.608.316-3.813,1.071 1.245-.438 1.097-2.699 1.738-3.926 .77-1.47 2.158-2.619 3.569-3.286 2.678-1.263 3.979-1.607 4.785-4.841-1.953-.686-3.971,4.196-5.956,1.947 1.257-.311 1.336-2.068 1.84-3.265 .673-1.599 1.667-2.712 3.238-3.367 .977-.405 2.305-.181 3.152-.628 1.015-.535 1.313-1.806 2.168-2.508-1.646-1.294-4.184-.707-5.765.343 .611-3.274 3.966-4.723 6.749-5.036 2.722-.308 2.92-1.702 4.987-3.169-.395.687-.751,1.308-1.364,1.745-1.196-1.218-3.002-.445-4.04.381-2.214-5.102 9.733-4.335 11.088-6.692-.945-.933-3.573-.843-4.427.069 2.163-6.571 8.795-1.197 12.447-4.322-1.58-1.24-3.961.761-5.748-1.267 1.657.848 2.906-.647 4.246-1.283 1.772-.843 4.187-1.32 6.208-.785 2.702.715 4.338.871 7.09.949-1.576-.902-4.029-3.272-5.72-3.411 3.268-1.393 5.175-.482 8.418,1.03 2.666,1.242 4.93.726 7.567,1.626-.741-1.321-1.89-1.5-2.927-2.415-.911-.804-1.333-1.706-2.16-2.486 1.041,1.5 2.414.478 3.77.511 1.744.045 2.8.677 4.127,1.92 .948.888 1.53,2.298 2.69,2.814 1.18.522 2.775.165 4.031.534-1.885-2.042-4.4-2.937-5.258-5.911 1.45,1.417 2.815,1.528 4.578,1.99 1.949.512 3.13,1.304 4.665,2.657 1.822,1.604 3.588,4.531 6.099,4.262-.784-.77-1.89-1.516-2.775-2.323-1.209-1.098-2.032-2.677-3.311-3.625 1.662,1.792 4.811,1.24 6.732,3.021 1.464,1.355 3.328,3.487 4.398,5.19-.661-1.772-1.89-3.294-2.853-4.919 3.55,1.522 5.282,5.994 8.146,8.45 .459-1.125-.912-2.794-1.325-4.003 3.45,2.894 5.923,6.489 9.042,9.527 2.241,2.187 4.728,4.019 6.785,6.456 .587.696.577,1.726-.021,2.303s-1.562.483-2.15-.211c-1.574-1.856-3.955-4.855-6.045-5.841-.65-.307-6.946-.417-7.046-.025 .34-1.34 1.003-2.624 1.983-3.466-1.539-2.796-6.636,2.252-8.893,1.213 .773-2.688 2.759-3.62 4.818-4.667-2.059-1.326-3.724-2.136-5.352-.729-.949.818-1.438,2.114-2.863,2.826-1.453.725-3.054.809-4.574,1.328 .794-3.072-.148-7.198 3.795-7.916-2.897-1.5-4.119.061-5.411,2.591-.882,1.728-1.117,3.629-3.012,4.455-1.122.489-3.648.798-3.993-.846 1.296-1.418 2.514-2.38 2.323-4.814-.124-1.599-1.25-4.089 1.585-3.692-1.011-.437-3.177-.781-4.115-.226-1.378.813-.765,1.616-.832,2.979-.199,4.075-3.46,7.383-7.524,5.766 1.371-1.291 2.82-3.596 2.304-5.77-.591-2.491-2.066-2.724.854-4.188-3.689-.182-7.379.725-5.83,5.405 1.152,3.484.212,6.059-3.512,6.557 3.121-1.837-.185-3.511-1.42-4.912-2.056-2.329-1.325-5.144 1.023-6.087-2.417-.261-5.87,1.879-5.532,4.891 .209,1.852 2.134,2.439 2.052,4.205-.12,2.541-3.814,4.247-5.86,3.736 2.071-2.706-1.478-5.209-1.338-7.827 .084-1.551 1.651-3.429 2.665-4.291-1.228.187-3.518,1.174-4.365,2.47-1.737,2.653-.456,6.142-.249,9.022 .136,1.906-1.515,4.012-2.958,4.753 .698-2.033-1.109-3.466-1.762-5.227-.846-2.276-1.148-7.177 1.346-8.1-2.49.147-4.549,2.848-4.469,5.374 .049,1.525.803,2.728 1.395,4.09 .733,1.686.863,3.15.682,4.902-.091.879.063,1.583-.429,2.331-.243.372-2.016,1.17-2.026,1.23 .402-2.25-1.594-3.944-2.48-5.835-.613-1.308-1.869-5.168-.794-6.328-2.86,3.088-1.096,6.693.294,10.271 .559,1.438 1.242,2.828 1.308,4.381 .069,1.634-1.197,2.941-1.193,4.317-.01-3.122-4.379-5.682-5.849-8.062-.691-1.116-.805-2.139-1.121-3.223 .142.489-1.021,2.398-.865,3.401 .199,1.297 1.266,3.428 2.166,4.337 1.335,1.351 2.872,1.924 3.406,3.973 .427,1.636.122,5.55-1.099,6.466-.022-2.725-1.673-4.715-4.024-5.547-1.881-.668-4.367-1.041-4.156-4.028-.127-.018-.253-.042-.378-.069-1.162-.251-.778,4.572-.402,5.205 1.166,1.963 3.775,2.006 5.257,3.486 2.861,2.857 1.32,6.393-.001,9.466 .742-1.726-2.843-4.786-3.833-5.554-1.489-1.153-3.311-2.486-3.259-4.738-.741,1.374-1.268,4.203-.299,5.749 .963,1.536 3.004,1.418 4.166,2.656 2.309,2.46 1.856,7.694.122,9.991-.219-2.701-1.028-3.956-3.076-5.53-1.687-1.296-2.235-1.682-2.601-3.896-1.203,3.336.14,5.432 2.246,7.701 2.018,2.175 3.691,7.482.443,9.111-.11-3.333-3.473-5.102-3.739-8.121-1.271,4.453 3.159,13.189-1.082,16.259 .278-2.896-2.297-5.494-2.83-8.379z" fill="#1fb512" stroke="#e8bd0a" stroke-width=".5251"/>
 <path d="m16.718,47.634c4.989-16.22 13.771-27.37 25.393-32.244 9.003-3.776 18.19-5.216 27.312-4.282 7.302.747 14.567,3.009 21.593,6.724 7.165,3.788 12.489,9.107 18.654,14.235 4.979,4.143 11.524,6.768 17.534,7.429 .847.093 1.804-.211 2.642.084 2.285.808 4.244,3.053 6.755,3.769-3.737,1.725-8.417-.212-12.349-.963-4.416-.843-8.142-2.199-12.121-4.801-3.383-2.21-6.304-5.334-9.395-8.004-4.021-3.471-8.392-6.476-12.984-8.893-6.658-3.501-13.538-5.633-20.441-6.329-8.628-.87-17.341.507-25.895,4.095-13.678,5.735-20.479,19.675-23.777,30.358-3.619,11.727-4.666,23.877-5.505,23.775s-1.151-12.808 2.584-24.953z" fill="#1b960e" stroke="#f9cb0d" stroke-width=".2625"/>
 <path d="m113.57,39.268c3.123-4.635 5.896-8.774 5.146-15.182-.46-3.92-3.148-3.791-6.596-4.606-4.457-1.057-8.508-5.101-13.181-5.266-4.912-.174-5.348,11.246-5.61,14.494-.545,6.725-6.666,12.602-10.2,17.994-8.745,13.338-21.353,31.519-16.146,48.39-3.166-10.267 10.78-19.679 17.113-25.109 1.495,9.218 7.829,16.058 9.937,25.137-2.688-11.579 4.036-28.358 9.32-38.157 2.71-5.025 5.357-10.181 8.429-14.992 .595-.933 1.197-1.828 1.788-2.703z" fill="#1c40b3" stroke="#f9cb0d" stroke-width=".4021"/>
 <path d="m116.34 33.624a3.792 3.675 0 1 0 -7.584 0 3.792 3.675 0 1 0 7.584 0" fill="#7a4d0a"/>
 <path d="m112.96 6.881 8.072 16.074 17.554 2.686-12.597 12.386 2.889 17.596-15.813-8.17-15.808 8.37 2.939-17.706-12.587-12.42 17.354-2.848 7.997-15.968z" fill="none" stroke="#593505" stroke-miterlimit="8.6" stroke-width=".3392"/>
 <path d="m113,7.232v19.501l.031.015 7.884-3.685-7.915-15.831z" fill="#b5a488" stroke="#593505" stroke-width=".1131"/>
 <path d="m113.102,19.67-.102.043v7.362l.031.072 7.884-4.084-7.813-3.393z" fill="#9e85a3"/>
 <path d="m113,7.232v19.501l-.032.015-7.883-3.685 7.915-15.831z" fill="#d6c28f" stroke="#593505" stroke-width=".1131"/>
 <path d="m112.896,19.67 .104.043v7.021l.196.414-8.111-4.084 7.811-3.394z" fill="#ab9272"/>
 <path d="m87.722,25.697 18.53,5.99 .003.035-5.924,6.357-12.609-12.382z" fill="#a78d6b" stroke="#593505" stroke-width=".1131"/>
 <path d="m99.508,29.615 .072-.084 6.672,2.156 .347.207-6.268,6.186-.823-8.465z" fill="#a993ad"/>
 <path d="m87.722,25.697 18.53,5.99 .022-.025-1.079-8.623-17.473,2.658z" fill="#d7c28e" stroke="#593505" stroke-width=".1131"/>
 <path d="m99.571,29.419 .009.111 6.672,2.156 .365-.025-1.422-8.623-5.624,6.381z" fill="#b59f82"/>
 <path d="m97.449,55.561 11.406-15.818-.019-.03-8.549-1.622-2.838,17.47z" fill="#cfb77c" stroke="#593505" stroke-width=".1131"/>
 <path d="m104.64,45.411 .108.026 4.107-5.695 .096-.43-8.663-1.222 4.352,7.321z" fill="#c8ac68"/>
 <path d="m97.449,55.561 11.406-15.818 .033.007 4.239,7.6-15.678,8.211z" fill="#b7a3bb" stroke="#593505" stroke-width=".1131"/>
 <path d="m104.807,45.531-.059-.094 4.107-5.695 .261-.336 4.012,7.942-8.321-1.817z" fill="#c8aa83"/>
 <path d="m128.752,55.367-11.527-15.697 .018-.03 8.524-1.693 2.985,17.42z" fill="#b1a3a7" stroke="#593505" stroke-width=".1131"/>
 <path d="m121.482,45.296-.106.026-4.323-5.937-.038-.031 8.752-1.407-4.285,7.349z" fill="#cfb77c"/>
 <path d="m128.752,55.367-11.527-15.697-.032.008-4.169,7.625 15.728,8.064z" fill="#a07e60" stroke="#593505" stroke-width=".1131"/>
 <path d="m121.318,45.416 .058-.094-4.151-5.652-.147-.277-4.054,7.91 8.294-1.887z" fill="#cfb77c"/>
 <path d="m138.318,25.692-18.543,5.995-.004.035 5.929,6.363 12.618-12.393z" fill="#beadc1" stroke="#593505" stroke-width=".1131"/>
 <path d="m126.523,29.613-.071-.083-6.677,2.158-.289.149 6.214,6.25 .823-8.474z" fill="#ae9064"/>
 <path d="m138.318,25.692-18.543,5.995-.022-.025 1.08-8.63 17.485,2.66z" fill="#d1ba80" stroke="#593505" stroke-width=".1131"/>
 <path d="m126.461,29.419-.009.11-6.677,2.158-.309.032 1.366-8.687 5.629,6.387z" fill="#caae6b"/>
 <path d="m97.296 55.737" fill="none" stroke="#593505" stroke-miterlimit="8.6" stroke-width=".3392"/>
 <path d="m109 39.233" fill="none" stroke="#593505" stroke-miterlimit="8.6" stroke-width=".3392"/>
 <path d="m87.722 25.697" fill="none" stroke="#593505" stroke-miterlimit="8.6" stroke-width=".3392"/>
 <path d="m106.55 31.809" fill="none" stroke="#593505" stroke-miterlimit="8.6" stroke-width=".3392"/>
 <path d="m113 7.138" fill="none" stroke="#593505" stroke-miterlimit="8.6" stroke-width=".3392"/>
 <path d="m113 27.069" fill="none" stroke="#593505" stroke-miterlimit="8.6" stroke-width=".3392"/>
 <path d="m138.58 25.641" fill="none" stroke="#593505" stroke-miterlimit="8.6" stroke-width=".3392"/>
 <path d="m119.51 31.751" fill="none" stroke="#593505" stroke-miterlimit="8.6" stroke-width=".3392"/>
 <path d="m128.88 55.623" fill="none" stroke="#593505" stroke-miterlimit="8.6" stroke-width=".3392"/>
 <path d="m117.06 39.348" fill="none" stroke="#593505" stroke-miterlimit="8.6" stroke-width=".3392"/>
 <path d="m113.069,47.2v-9.851l-.018-.008-3.982,1.862 4,7.997z" fill="#a78d6b" stroke="#593505" stroke-width=".1131"/>
 <path d="m113.017,40.917 .053-.021v-3.72l-.018-.037-3.982,2.063 3.947,1.715z" fill="#d7c28e"/>
 <path d="m113.07 47.2v-9.851l0.016-8e-3 3.982 1.862-3.998 7.997z" fill="#beadc1" stroke="#593505" stroke-width=".1131"/>
 <path d="m113.12,40.917-.051-.021v-3.548l-.1-.209 4.098,2.063-3.947,1.715z" fill="#ceb474"/>
 <path d="m125.839,37.874-9.361-3.027-.002-.016 2.993-3.214 6.37,6.257z" fill="#b9a88d" stroke="#593505" stroke-width=".1131"/>
 <path d="m119.885,35.894-.037.041-3.37-1.089-.176-.104 3.167-3.125 .416,4.277z" fill="#d7c28e"/>
 <path d="m125.839,37.874-9.361-3.027-.012.014 .545,4.356 8.828-1.343z" fill="#a49398" stroke="#593505" stroke-width=".1131"/>
 <path d="m119.852,35.993-.004-.058-3.37-1.089-.186.014 .719,4.356 2.841-3.223z" fill="#aa8863"/>
 <path d="m120.925,22.787-5.764,7.991 .01.014 4.319.82 1.435-8.825z" fill="#a993ad" stroke="#593505" stroke-width=".1131"/>
 <path d="m117.291,27.914-.055-.012-2.075,2.876-.048.216 4.377.618-2.199-3.698z" fill="#9c877f"/>
 <path d="m120.925,22.787-5.764,7.991-.016-.003-2.142-3.84 7.922-4.148z" fill="#d7c28e" stroke="#593505" stroke-width=".1131"/>
 <path d="m117.207,27.853 .029.049-2.075,2.876-.132.169-2.025-4.013 4.203.919z" fill="#ba9661"/>
 <path d="m105.11,22.884 5.823,7.931-.008.014-4.307.856-1.508-8.801z" fill="#c39f56" stroke="#593505" stroke-width=".1131"/>
 <path d="m108.783,27.972 .054-.014 2.183,2.999 .021.015-4.421.712 2.163-3.712z" fill="#9e85a3"/>
 <path d="m105.11,22.884 5.823,7.931 .017-.004 2.106-3.852-7.946-4.075z" fill="#caae6b" stroke="#593505" stroke-width=".1131"/>
 <path d="m108.865,27.911-.028.048 2.097,2.856 .075.14 2.048-3.997-4.192.953z" fill="#a993ad"/>
 <path d="m100.278,37.875 9.367-3.029 .001-.017-2.994-3.215-6.374,6.261z" fill="#d7c28e" stroke="#593505" stroke-width=".1131"/>
 <path d="m106.236,35.894 .036.043 3.373-1.091 .146-.074-3.139-3.158-.416,4.28z" fill="#c1aa88"/>
 <path d="m100.278,37.875 9.367-3.029 .012.014-.547,4.359-8.832-1.344z" fill="#987d9e" stroke="#593505" stroke-width=".1131"/>
 <path d="m106.268,35.993 .005-.056 3.373-1.091 .156-.015-.691,4.388-2.843-3.226z" fill="#a993ad"/>
 <path d="m113.09 47.379-4.076-8.12-9.012-1.342 6.506-6.272-1.519-8.983 8.048 4.22 7.986-4.228-1.486 8.945 6.553 6.34-8.96 1.373-4.04 8.067z" fill="none" stroke="#593505" stroke-miterlimit="8.6" stroke-width=".2261"/>
 <path d="m121 22.696" fill="none" stroke="#593505" stroke-miterlimit="8.6" stroke-width=".3392"/>
 <path d="m115.09 31.035" fill="none" stroke="#593505" stroke-miterlimit="8.6" stroke-width=".3392"/>
 <path d="m126.02 37.901" fill="none" stroke="#593505" stroke-miterlimit="8.6" stroke-width=".3392"/>
 <path d="m116.33 34.786" fill="none" stroke="#593505" stroke-miterlimit="8.6" stroke-width=".3392"/>
 <path d="m113.07 47.249" fill="none" stroke="#593505" stroke-miterlimit="8.6" stroke-width=".3392"/>
 <path d="m113.07 37.18" fill="none" stroke="#593505" stroke-miterlimit="8.6" stroke-width=".3392"/>
 <path d="m100.14 37.901" fill="none" stroke="#593505" stroke-miterlimit="8.6" stroke-width=".3392"/>
 <path d="m109.78 34.814" fill="none" stroke="#593505" stroke-miterlimit="8.6" stroke-width=".3392"/>
 <path d="m105.05 22.754" fill="none" stroke="#593505" stroke-miterlimit="8.6" stroke-width=".3392"/>
 <path d="m111.02 30.976" fill="none" stroke="#593505" stroke-miterlimit="8.6" stroke-width=".3392"/>
 <g transform="matrix(.25562 0 0 .25562 186.46 189.48)">
  <path d="m-287.227-635.742v19.497l.027.013 7.882-3.687-7.909-15.823z" fill="#b5a488" stroke="#593505" stroke-width=".1131"/>
  <path d="m-287.132-623.307-.096.04v7.364l.027.075 7.882-4.09-7.813-3.389z" fill="#9e85a3"/>
  <path d="m-287.227-635.742v19.497l-.038.013-7.882-3.687 7.92-15.823z" fill="#d6c28f" stroke="#593505" stroke-width=".1131"/>
  <path d="m-287.334-623.307 .107.04v7.022l.195.416-8.115-4.09 7.813-3.388z" fill="#ab9272"/>
  <path d="m-312.507-617.28 18.525,5.99 .004.032-5.922,6.363-12.607-12.385z" fill="#a78d6b" stroke="#593505" stroke-width=".1131"/>
  <path d="m-300.725-613.362 .073-.084 6.67,2.157 .348.204-6.265,6.191-.826-8.468z" fill="#a993ad"/>
  <path d="m-312.507-617.28 18.525,5.99 .027-.027-1.085-8.625-17.467,2.662z" fill="#d7c28e" stroke="#593505" stroke-width=".1131"/>
  <path d="m-300.66-613.557 .008.111 6.67,2.157 .371-.027-1.429-8.625-5.62,6.384z" fill="#b59f82"/>
  <path d="m-302.78-587.42 11.408-15.817-0.023-0.034-8.546-1.622-2.839 17.473z" fill="#cfb77c" stroke="#593505" stroke-width=".1131"/>
  <path d="m-295.586-597.569 .103.027 4.107-5.69 .099-.43-8.669-1.226 4.36,7.319z" fill="#c8ac68"/>
  <path d="m-302.78-587.42 11.408-15.817 0.034 6e-3 4.241 7.597-15.683 8.214z" fill="#b7a3bb" stroke="#593505" stroke-width=".1131"/>
  <path d="m-295.422-597.449-.061-.094 4.107-5.69 .26-.338 4.015,7.941-8.321-1.819z" fill="#c8aa83"/>
  <path d="m-271.48-587.607-11.526-15.702 .019-.027 8.523-1.694 2.984,17.423z" fill="#b1a3a7" stroke="#593505" stroke-width=".1131"/>
  <path d="m-278.754-597.682-.103.027-4.321-5.941-.042-.027 8.756-1.408-4.29,7.349z" fill="#cfb77c"/>
  <path d="m-271.48-587.607-11.526-15.702-.034.01-4.164,7.627 15.724,8.065z" fill="#a07e60" stroke="#593505" stroke-width=".1131"/>
  <path d="m-278.914-597.561 .057-.094-4.149-5.654-.145-.275-4.053,7.912 8.29-1.889z" fill="#cfb77c"/>
  <path d="m-261.92-617.28-18.537 5.994-4e-3 0.032 5.925 6.369 12.616-12.395z" fill="#beadc1" stroke="#593505" stroke-width=".1131"/>
  <path d="m-273.707-613.362-.073-.084-6.674,2.157-.294.151 6.216,6.25 .825-8.474z" fill="#ae9064"/>
  <path d="m-261.92-617.28-18.537 5.994-0.027-0.027 1.081-8.628 17.483 2.661z" fill="#d1ba80" stroke="#593505" stroke-width=".1131"/>
  <path d="m-273.776-613.559-.004.113-6.674,2.157-.313.032 1.368-8.688 5.623,6.386z" fill="#caae6b"/>
  <path d="m-287.27-636.1 8.073 16.073 17.83 2.661-12.871 12.413 3.003 17.778-15.927-8.35-15.813 8.369 2.946-17.704-12.974-12.552 17.734-2.716 7.999-15.972z" fill="none" stroke="#593505" stroke-miterlimit="8.6" stroke-width=".2261"/>
  <path d="m-302.94-587.24" fill="none" stroke="#593505" stroke-miterlimit="8.6" stroke-width=".3392"/>
  <path d="m-291.23-603.74" fill="none" stroke="#593505" stroke-miterlimit="8.6" stroke-width=".3392"/>
  <path d="m-312.87-617.34" fill="none" stroke="#593505" stroke-miterlimit="8.6" stroke-width=".3392"/>
  <path d="m-293.68-611.17" fill="none" stroke="#593505" stroke-miterlimit="8.6" stroke-width=".3392"/>
  <path d="m-287.23-635.84" fill="none" stroke="#593505" stroke-miterlimit="8.6" stroke-width=".3392"/>
  <path d="m-287.23-615.91" fill="none" stroke="#593505" stroke-miterlimit="8.6" stroke-width=".3392"/>
  <path d="m-261.65-617.34" fill="none" stroke="#593505" stroke-miterlimit="8.6" stroke-width=".3392"/>
  <path d="m-280.72-611.23" fill="none" stroke="#593505" stroke-miterlimit="8.6" stroke-width=".3392"/>
  <path d="m-271.35-587.36" fill="none" stroke="#593505" stroke-miterlimit="8.6" stroke-width=".3392"/>
  <path d="m-283.18-603.63" fill="none" stroke="#593505" stroke-miterlimit="8.6" stroke-width=".3392"/>
  <path d="m-287.16-595.78v-9.851l-0.015-0.013-3.985 1.864 4 8z" fill="#a78d6b" stroke="#593505" stroke-width=".1131"/>
  <path d="m-287.216-602.06 .053-.019v-3.717l-.015-.042-3.985,2.063 3.947,1.715z" fill="#d7c28e" stroke="#593505" stroke-width=".1131"/>
  <path d="m-287.16-595.78v-9.851l0.011-0.013 3.989 1.864-4 8z" fill="#beadc1" stroke="#593505" stroke-width=".1131"/>
  <path d="m-287.113-602.06-.05-.019v-3.547l-.099-.212 4.099,2.063-3.95,1.715z" fill="#ceb474" stroke="#593505" stroke-width=".1131"/>
  <path d="m-274.39-605.1-9.364-3.031-4e-3 -0.011 2.991-3.215 6.377 6.257z" fill="#b9a88d" stroke="#593505" stroke-width=".1131"/>
  <path d="m-280.347-607.084-.038.044-3.37-1.095-.176-.099 3.163-3.127 .421,4.277z" fill="#d7c28e" stroke="#593505" stroke-width=".1131"/>
  <path d="m-274.391-605.103-9.364-3.031-.011.015 .546,4.359 8.829-1.343z" fill="#a49398" stroke="#593505" stroke-width=".1131"/>
  <path d="m-280.377-606.986-.008-.053-3.37-1.095-.183.015 .718,4.359 2.843-3.226z" fill="#aa8863" stroke="#593505" stroke-width=".1131"/>
  <path d="m-279.308-620.193-5.761,7.99 .008.021 4.317.814 1.436-8.825z" fill="#a993ad" stroke="#593505" stroke-width=".1131"/>
  <path d="m-282.937-615.061-.061-.017-2.071,2.875-.05.218 4.374.617-2.192-3.693z" fill="#9c877f" stroke="#593505" stroke-width=".1131"/>
  <path d="m-279.31-620.19-5.761 7.99-0.015-2e-3 -2.143-3.84 7.919-4.148z" fill="#d7c28e" stroke="#593505" stroke-width=".1131"/>
  <path d="m-283.025-615.126 .027.048-2.071,2.875-.134.172-2.025-4.013 4.203.918z" fill="#ba9661" stroke="#593505" stroke-width=".1131"/>
  <path d="m-295.12-620.096 5.822,7.931-.008.013-4.306.858-1.508-8.802z" fill="#c39f56" stroke="#593505" stroke-width=".1131"/>
  <path d="m-291.453-615.005 .053-.013 2.189,3.005 .019.013-4.42.707 2.159-3.712z" fill="#9e85a3" stroke="#593505" stroke-width=".1131"/>
  <path d="m-295.12-620.1 5.822 7.931 0.015-4e-3 2.109-3.849-7.946-4.078z" fill="#caae6b" stroke="#593505" stroke-width=".1131"/>
  <path d="m-291.369-615.068-.031.05 2.101,2.854 .076.139 2.048-3.992-4.194.949z" fill="#a993ad" stroke="#593505" stroke-width=".1131"/>
  <path d="m-299.96-605.1 9.371-3.033v-0.011l-2.991-3.219-6.38 6.263z" fill="#d7c28e" stroke="#593505" stroke-width=".1131"/>
  <path d="m-293.997-607.084 .034.044 3.377-1.095 .145-.073-3.137-3.158-.419,4.282z" fill="#c1aa88" stroke="#593505" stroke-width=".1131"/>
  <path d="m-299.957-605.101 9.371-3.033 .011.015-.55,4.363-8.832-1.345z" fill="#987d9e" stroke="#593505" stroke-width=".1131"/>
  <path d="m-293.963-606.984v-.055l3.377-1.095 .153-.01-.691,4.388-2.839-3.228z" fill="#a993ad" stroke="#593505" stroke-width=".1131"/>
  <path d="m-287.14-595.6-4.08-8.124-9.009-1.337 6.502-6.275-1.513-8.984 8.046 4.22 7.988-4.223-1.486 8.944 6.548 6.334-8.959 1.381-4.037 8.064z" fill="none" stroke="#593505" stroke-width=".1131"/>
  <path d="m-279.23-620.28" fill="none" stroke="#593505" stroke-miterlimit="8.6" stroke-width=".3392"/>
  <path d="m-285.14-611.94" fill="none" stroke="#593505" stroke-miterlimit="8.6" stroke-width=".3392"/>
  <path d="m-274.21-605.08" fill="none" stroke="#593505" stroke-miterlimit="8.6" stroke-width=".3392"/>
  <path d="m-287.16-595.73" fill="none" stroke="#593505" stroke-miterlimit="8.6" stroke-width=".3392"/>
  <path d="m-287.16-605.8" fill="none" stroke="#593505" stroke-miterlimit="8.6" stroke-width=".3392"/>
  <path d="m-300.09-605.08" fill="none" stroke="#593505" stroke-miterlimit="8.6" stroke-width=".3392"/>
  <path d="m-290.45-608.17" fill="none" stroke="#593505" stroke-miterlimit="8.6" stroke-width=".3392"/>
  <path d="m-295.18-620.22" fill="none" stroke="#593505" stroke-miterlimit="8.6" stroke-width=".3392"/>
  <path d="m-289.21-612" fill="none" stroke="#593505" stroke-miterlimit="8.6" stroke-width=".3392"/>
 </g>
 <path d="m87.722 25.697 18.756 5.887" fill="none" stroke="#593505" stroke-miterlimit="8.6" stroke-width=".3392"/>
 <path d="m113 7.138-1e-3 19.436" fill="none" stroke="#593505" stroke-miterlimit="8.6" stroke-width=".3392"/>
 <path d="m119.65 31.672 18.667-5.995" fill="none" stroke="#593505" stroke-miterlimit="8.6" stroke-width=".3392"/>
 <path d="m97.449 55.561 11.577-16.189" fill="none" stroke="#593505" stroke-miterlimit="8.6" stroke-width=".3392"/>
 <path d="m117.1 39.343 11.652 16.024" fill="none" stroke="#593505" stroke-miterlimit="8.6" stroke-width=".3392"/>
 <path d="m105.11 22.956 5.805 7.689" fill="none" stroke="#593505" stroke-miterlimit="8.6" stroke-width=".2261"/>
 <path d="m121 22.696-5.865 7.949" fill="none" stroke="#593505" stroke-miterlimit="8.6" stroke-width=".2261"/>
 <path d="m109.75 34.812-9.611 3.089" fill="none" stroke="#593505" stroke-miterlimit="8.6" stroke-width=".2261"/>
 <path d="m113.06 37.203 8e-3 10.046" fill="none" stroke="#593505" stroke-miterlimit="8.6" stroke-width=".2261"/>
 <path d="m116.37 34.812 9.652 3.089" fill="none" stroke="#593505" stroke-miterlimit="8.6" stroke-width=".2261"/>
 <path d="m113.05,31.996-.008-5.047" fill="none" stroke="#593505" stroke-miterlimit="8.6" stroke-width=".1131"/>
 <path d="m114.71 33.202 4.646-1.427" fill="none" stroke="#593505" stroke-miterlimit="8.6" stroke-width=".1131"/>
 <path d="m114.1 35.174 2.811 4.098" fill="none" stroke="#593505" stroke-miterlimit="8.6" stroke-width=".1131"/>
 <path d="m112.05 35.092-3.149 4.462" fill="none" stroke="#593505" stroke-miterlimit="8.6" stroke-width=".1131"/>
 <path d="m111.38 33.213-4.611-1.488" fill="none" stroke="#593505" stroke-miterlimit="8.6" stroke-width=".1131"/>
</svg>
